<svg xmlns="http://www.w3.org/2000/svg" viewBox="0 0 26 26">
  <path d="M7.546875 0C3.390625 0 0 3.390625 0 7.546875L0 18.453125C0 22.609375 3.390625 26 7.546875 26L18.453125 26C22.609375 26 26 22.609375 26 18.453125L26 7.546875C26 3.390625 22.609375 0 18.453125 0 Z M 7.546875 2L18.453125 2C21.527344 2 24 4.46875 24 7.546875L24 18.453125C24 21.527344 21.53125 24 18.453125 24L7.546875 24C4.472656 24 2 21.53125 2 18.453125L2 7.546875C2 4.472656 4.46875 2 7.546875 2 Z M 20.5 4C19.671875 4 19 4.671875 19 5.5C19 6.328125 19.671875 7 20.5 7C21.328125 7 22 6.328125 22 5.5C22 4.671875 21.328125 4 20.5 4 Z M 13 6C9.144531 6 6 9.144531 6 13C6 16.855469 9.144531 20 13 20C16.855469 20 20 16.855469 20 13C20 9.144531 16.855469 6 13 6 Z M 13 8C15.773438 8 18 10.226563 18 13C18 15.773438 15.773438 18 13 18C10.226563 18 8 15.773438 8 13C8 10.226563 10.226563 8 13 8Z" fill="#FFFFFF" />
</svg>